<svg width="60" height="60" viewBox="0 0 60 60" fill="none" xmlns="http://www.w3.org/2000/svg">
<rect width="60" height="60" rx="30" fill="white"/>
<path d="M39.3333 28.6667H26L30.3867 24.28C30.5116 24.156 30.6108 24.0086 30.6785 23.8461C30.7462 23.6836 30.7811 23.5093 30.7811 23.3333C30.7811 23.1573 30.7462 22.983 30.6785 22.8206C30.6108 22.6581 30.5116 22.5106 30.3867 22.3867C30.1369 22.1383 29.7989 21.9989 29.4467 21.9989C29.0944 21.9989 28.7565 22.1383 28.5067 22.3867L22.7867 28.12C22.2859 28.6178 22.003 29.2939 22 30C22.0065 30.7015 22.2891 31.3721 22.7867 31.8667L28.5067 37.6C28.631 37.7234 28.7784 37.8212 28.9405 37.8877C29.1026 37.9541 29.2762 37.988 29.4514 37.9874C29.6266 37.9868 29.7999 37.9517 29.9616 37.884C30.1232 37.8164 30.2699 37.7176 30.3933 37.5933C30.5168 37.469 30.6145 37.3216 30.681 37.1595C30.7475 36.9974 30.7814 36.8238 30.7807 36.6486C30.7801 36.4734 30.745 36.3001 30.6774 36.1384C30.6098 35.9768 30.511 35.8301 30.3867 35.7067L26 31.3333H39.3333C39.687 31.3333 40.0261 31.1928 40.2761 30.9428C40.5262 30.6927 40.6667 30.3536 40.6667 30C40.6667 29.6464 40.5262 29.3072 40.2761 29.0572C40.0261 28.8071 39.687 28.6667 39.3333 28.6667Z" fill="black"/>
</svg>
