<svg width="16" height="17" viewBox="0 0 16 17" fill="none" xmlns="http://www.w3.org/2000/svg">
<g clip-path="url(#clip0_66_325)">
<path d="M7.99992 4.2207C7.4725 4.2207 6.95693 4.3771 6.5184 4.67012C6.07987 4.96313 5.73807 5.37961 5.53624 5.86688C5.33441 6.35415 5.2816 6.89033 5.38449 7.40761C5.48739 7.92489 5.74136 8.40005 6.1143 8.77299C6.48724 9.14593 6.9624 9.3999 7.47968 9.5028C7.99696 9.60569 8.53314 9.55288 9.02041 9.35105C9.50768 9.14921 9.92415 8.80742 10.2172 8.36889C10.5102 7.93036 10.6666 7.41479 10.6666 6.88737C10.6666 6.18013 10.3856 5.50185 9.88554 5.00175C9.38544 4.50165 8.70716 4.2207 7.99992 4.2207ZM7.99992 8.2207C7.73621 8.2207 7.47843 8.1425 7.25916 7.996C7.03989 7.84949 6.869 7.64125 6.76808 7.39761C6.66716 7.15398 6.64076 6.88589 6.69221 6.62725C6.74365 6.36861 6.87064 6.13103 7.05711 5.94456C7.24358 5.75809 7.48116 5.6311 7.7398 5.57966C7.99844 5.52821 8.26653 5.55461 8.51016 5.65553C8.7538 5.75645 8.96204 5.92734 9.10855 6.14661C9.25505 6.36588 9.33325 6.62366 9.33325 6.88737C9.33325 7.24099 9.19278 7.58013 8.94273 7.83018C8.69268 8.08023 8.35354 8.2207 7.99992 8.2207Z" fill="white"/>
<path d="M7.99996 16.2211C7.43859 16.2239 6.8847 16.0923 6.38467 15.8371C5.88464 15.5819 5.45303 15.2107 5.12596 14.7544C2.5853 11.2497 1.29663 8.61506 1.29663 6.92306C1.29663 5.14523 2.00287 3.44021 3.25999 2.18309C4.51711 0.925969 6.22213 0.219727 7.99996 0.219727C9.7778 0.219727 11.4828 0.925969 12.7399 2.18309C13.9971 3.44021 14.7033 5.14523 14.7033 6.92306C14.7033 8.61506 13.4146 11.2497 10.874 14.7544C10.5469 15.2107 10.1153 15.5819 9.61525 15.8371C9.11522 16.0923 8.56133 16.2239 7.99996 16.2211ZM7.99996 1.67506C6.60824 1.67665 5.27398 2.23021 4.28988 3.21431C3.30578 4.19841 2.75222 5.53267 2.75063 6.92439C2.75063 8.26439 4.01263 10.7424 6.3033 13.9017C6.49776 14.1696 6.75288 14.3876 7.04777 14.5379C7.34267 14.6882 7.66897 14.7666 7.99996 14.7666C8.33096 14.7666 8.65726 14.6882 8.95216 14.5379C9.24705 14.3876 9.50217 14.1696 9.69663 13.9017C11.9873 10.7424 13.2493 8.26439 13.2493 6.92439C13.2477 5.53267 12.6941 4.19841 11.71 3.21431C10.726 2.23021 9.39169 1.67665 7.99996 1.67506Z" fill="white"/>
</g>
<defs>
<clipPath id="clip0_66_325">
<rect width="16" height="16" fill="white" transform="translate(0 0.220703)"/>
</clipPath>
</defs>
</svg>
