<svg width="16" height="17" viewBox="0 0 16 17" fill="none" xmlns="http://www.w3.org/2000/svg">
<g clip-path="url(#clip0_66_333)">
<path d="M12.6667 1.3877H3.33333C2.4496 1.38875 1.60237 1.74028 0.97748 2.36518C0.352588 2.99007 0.00105857 3.8373 0 4.72103L0 12.721C0.00105857 13.6048 0.352588 14.452 0.97748 15.0769C1.60237 15.7018 2.4496 16.0533 3.33333 16.0544H12.6667C13.5504 16.0533 14.3976 15.7018 15.0225 15.0769C15.6474 14.452 15.9989 13.6048 16 12.721V4.72103C15.9989 3.8373 15.6474 2.99007 15.0225 2.36518C14.3976 1.74028 13.5504 1.38875 12.6667 1.3877ZM3.33333 2.72103H12.6667C13.0659 2.72181 13.4557 2.84204 13.786 3.06623C14.1163 3.29042 14.3719 3.60833 14.52 3.97903L9.41467 9.08503C9.03895 9.45924 8.53028 9.66934 8 9.66934C7.46972 9.66934 6.96105 9.45924 6.58533 9.08503L1.48 3.97903C1.6281 3.60833 1.88374 3.29042 2.21403 3.06623C2.54432 2.84204 2.93414 2.72181 3.33333 2.72103ZM12.6667 14.721H3.33333C2.8029 14.721 2.29419 14.5103 1.91912 14.1352C1.54405 13.7602 1.33333 13.2515 1.33333 12.721V5.72103L5.64267 10.0277C6.26842 10.6519 7.11617 11.0024 8 11.0024C8.88383 11.0024 9.73158 10.6519 10.3573 10.0277L14.6667 5.72103V12.721C14.6667 13.2515 14.456 13.7602 14.0809 14.1352C13.7058 14.5103 13.1971 14.721 12.6667 14.721Z" fill="white"/>
</g>
<defs>
<clipPath id="clip0_66_333">
<rect width="16" height="16" fill="white" transform="translate(0 0.720703)"/>
</clipPath>
</defs>
</svg>
