<svg width="16" height="17" viewBox="0 0 16 17" fill="none" xmlns="http://www.w3.org/2000/svg">
<g clip-path="url(#clip0_66_330)">
<path d="M8 7.38758C6.162 7.38758 4.66667 8.88291 4.66667 10.7209C4.66667 12.5589 6.162 14.0542 8 14.0542C9.838 14.0542 11.3333 12.5589 11.3333 10.7209C11.3333 8.88291 9.838 7.38758 8 7.38758ZM8 12.7209C6.89733 12.7209 6 11.8236 6 10.7209C6 9.61825 6.89733 8.72091 8 8.72091C9.10267 8.72091 10 9.61825 10 10.7209C10 11.8236 9.10267 12.7209 8 12.7209ZM13.764 8.02758C15.0173 7.89358 16 6.84225 16 5.55491C16 4.61158 15.624 3.71491 14.938 3.02891C11.89 -0.0190859 4.10867 -0.0184193 1.062 3.02891C0.376 3.71491 0 4.61158 0 5.55425C0 6.84225 0.983333 7.89358 2.236 8.02758L0.862667 10.6029C0.298 11.6616 0 12.8549 0 14.0542C0 15.5249 1.196 16.7209 2.66667 16.7209H13.3333C14.804 16.7209 16 15.5249 16 14.0542C16 12.8549 15.702 11.6616 15.1373 10.6029L13.764 8.02758ZM1.33333 5.55358C1.33333 4.96691 1.57067 4.40491 2.00467 3.97158C4.58267 1.39491 11.4187 1.39491 13.9953 3.97158C14.4287 4.40491 14.6673 4.96691 14.6667 5.55425C14.6667 6.19758 14.1433 6.72091 13.5 6.72091H13.044L12.526 5.85758C12.2493 5.39558 11.85 5.03491 11.3733 4.81558C10.62 4.46825 9.42333 4.05491 8 4.05491C6.57667 4.05491 5.38 4.46891 4.62733 4.81558C4.14933 5.03558 3.75067 5.39558 3.474 5.85758L2.956 6.72091H2.5C1.85667 6.72091 1.33333 6.19758 1.33333 5.55358ZM13.3333 15.3876H2.66667C1.93133 15.3876 1.33333 14.7896 1.33333 14.0542C1.33333 13.0729 1.57733 12.0962 2.04 11.2309L3.91867 7.70825L4.61733 6.54291C4.756 6.31225 4.952 6.13358 5.186 6.02625C5.81733 5.73491 6.81867 5.38758 8.00067 5.38758C9.18267 5.38758 10.1833 5.73491 10.816 6.02625C11.0493 6.13358 11.2453 6.31225 11.384 6.54291L12.0827 7.70825L13.9613 11.2309C14.4233 12.0969 14.668 13.0736 14.668 14.0542C14.668 14.7896 14.07 15.3876 13.3347 15.3876H13.3333Z" fill="white"/>
</g>
<defs>
<clipPath id="clip0_66_330">
<rect width="16" height="16" fill="white" transform="translate(0 0.720703)"/>
</clipPath>
</defs>
</svg>
