<svg width="24" height="24" viewBox="0 0 24 24" fill="none" xmlns="http://www.w3.org/2000/svg">
<path d="M5 11.0001H15L11.71 7.71006C11.6163 7.6171 11.5419 7.5065 11.4911 7.38464C11.4403 7.26278 11.4142 7.13207 11.4142 7.00006C11.4142 6.86805 11.4403 6.73734 11.4911 6.61548C11.5419 6.49362 11.6163 6.38302 11.71 6.29006C11.8974 6.10381 12.1508 5.99927 12.415 5.99927C12.6792 5.99927 12.9326 6.10381 13.12 6.29006L17.41 10.5901C17.7856 10.9634 17.9978 11.4705 18 12.0001C17.9951 12.5262 17.7832 13.0292 17.41 13.4001L13.12 17.7001C13.0268 17.7926 12.9162 17.866 12.7946 17.9158C12.6731 17.9657 12.5429 17.9911 12.4115 17.9906C12.2801 17.9902 12.1501 17.9638 12.0288 17.9131C11.9076 17.8624 11.7976 17.7883 11.705 17.6951C11.6124 17.6018 11.5391 17.4913 11.4893 17.3697C11.4394 17.2481 11.414 17.1179 11.4144 16.9865C11.4149 16.8551 11.4412 16.7251 11.492 16.6039C11.5427 16.4827 11.6168 16.3726 11.71 16.2801L15 13.0001H5C4.73478 13.0001 4.48043 12.8947 4.29289 12.7072C4.10535 12.5196 4 12.2653 4 12.0001C4 11.7348 4.10535 11.4805 4.29289 11.293C4.48043 11.1054 4.73478 11.0001 5 11.0001Z" fill="#004088"/>
</svg>
