<svg width="60" height="60" viewBox="0 0 60 60" fill="none" xmlns="http://www.w3.org/2000/svg">
<rect width="60" height="60" rx="30" transform="matrix(-1 0 0 1 60 0)" fill="white"/>
<path d="M20.6667 28.6667H34L29.6133 24.28C29.4884 24.156 29.3892 24.0086 29.3215 23.8461C29.2538 23.6836 29.2189 23.5093 29.2189 23.3333C29.2189 23.1573 29.2538 22.983 29.3215 22.8206C29.3892 22.6581 29.4884 22.5106 29.6133 22.3867C29.8631 22.1383 30.2011 21.9989 30.5533 21.9989C30.9056 21.9989 31.2435 22.1383 31.4933 22.3867L37.2133 28.12C37.7141 28.6178 37.997 29.2939 38 30C37.9935 30.7015 37.7109 31.3721 37.2133 31.8667L31.4933 37.6C31.369 37.7234 31.2216 37.8212 31.0595 37.8877C30.8974 37.9541 30.7238 37.988 30.5486 37.9874C30.3734 37.9868 30.2001 37.9517 30.0384 37.884C29.8768 37.8164 29.7301 37.7176 29.6067 37.5933C29.4832 37.469 29.3855 37.3216 29.319 37.1595C29.2525 36.9974 29.2186 36.8238 29.2193 36.6486C29.2199 36.4734 29.255 36.3001 29.3226 36.1384C29.3902 35.9768 29.489 35.8301 29.6133 35.7067L34 31.3333H20.6667C20.313 31.3333 19.9739 31.1928 19.7239 30.9428C19.4738 30.6927 19.3333 30.3536 19.3333 30C19.3333 29.6464 19.4738 29.3072 19.7239 29.0572C19.9739 28.8071 20.313 28.6667 20.6667 28.6667Z" fill="black"/>
</svg>
