<svg width="58" height="42" viewBox="0 0 58 42" fill="none" xmlns="http://www.w3.org/2000/svg">
<path d="M46.8684 27.3788C48.1361 30.5673 50.1337 33.7175 52.8037 36.7524C53.6489 37.7129 53.7641 39.0958 53.0726 40.1715C52.5348 41.0166 51.6513 41.4776 50.6908 41.4776C50.4219 41.4776 50.1529 41.4585 49.884 41.3623C44.2369 39.7105 31.0407 33.852 30.6758 15.0662C30.5414 7.8248 35.8428 1.60135 42.7386 0.890642C46.561 0.506458 50.3642 1.75492 53.1879 4.29043C56.0114 6.84516 57.625 10.4948 57.625 14.298C57.625 20.6367 53.1302 26.1879 46.8684 27.3788Z" fill="#C3C3C3"/>
<path d="M12.0819 0.890642C15.8852 0.506458 19.6884 1.75492 22.512 4.29043C25.3357 6.84516 26.9492 10.4948 26.9492 14.298C26.9492 20.6367 22.4544 26.1879 16.1925 27.3788C17.4603 30.5673 19.4579 33.7175 22.1279 36.7524C22.9731 37.7128 23.0883 39.0958 22.3967 40.1714C21.859 41.0166 20.9754 41.4776 20.0149 41.4776C19.7461 41.4776 19.4772 41.4585 19.2082 41.3623C13.561 39.7104 0.364935 33.852 -2.28882e-05 15.0662V14.7974C-2.28882e-05 7.6711 5.24379 1.60135 12.0819 0.890642Z" fill="#C3C3C3"/>
</svg>
