<svg width="167" height="88" viewBox="0 0 167 88" fill="none" xmlns="http://www.w3.org/2000/svg">
<path d="M13.992 85.6437L16.528 80.0437H17.32L19.864 85.6437H19.024L16.76 80.4917H17.08L14.816 85.6437H13.992ZM15.072 84.2437L15.288 83.6037H18.44L18.672 84.2437H15.072ZM32.3874 82.4597H35.2674V83.1397H32.3874V82.4597ZM32.4594 84.9477H35.7234V85.6437H31.6594V80.0437H35.6114V80.7397H32.4594V84.9477ZM47.9787 85.6437V80.0437H50.1627C50.6534 80.0437 51.0721 80.121 51.4187 80.2757C51.7654 80.4303 52.0321 80.6543 52.2187 80.9477C52.4054 81.241 52.4987 81.5903 52.4987 81.9957C52.4987 82.401 52.4054 82.7503 52.2187 83.0437C52.0321 83.3317 51.7654 83.553 51.4187 83.7077C51.0721 83.8623 50.6534 83.9397 50.1627 83.9397H48.4187L48.7787 83.5717V85.6437H47.9787ZM51.7227 85.6437L50.2987 83.6117H51.1547L52.5947 85.6437H51.7227ZM48.7787 83.6517L48.4187 83.2597H50.1387C50.6507 83.2597 51.0374 83.1503 51.2987 82.9317C51.5654 82.7077 51.6987 82.3957 51.6987 81.9957C51.6987 81.5957 51.5654 81.2863 51.2987 81.0677C51.0374 80.849 50.6507 80.7397 50.1387 80.7397H48.4187L48.7787 80.3397V83.6517ZM67.2793 85.7077C66.8526 85.7077 66.4553 85.6357 66.0873 85.4917C65.7246 85.3477 65.4099 85.1477 65.1433 84.8917C64.8766 84.6303 64.6686 84.3263 64.5193 83.9797C64.3699 83.633 64.2953 83.2543 64.2953 82.8437C64.2953 82.433 64.3699 82.0543 64.5193 81.7077C64.6686 81.361 64.8766 81.0597 65.1433 80.8037C65.4099 80.5423 65.7246 80.3397 66.0873 80.1957C66.4499 80.0517 66.8473 79.9797 67.2793 79.9797C67.7059 79.9797 68.0979 80.0517 68.4553 80.1957C68.8179 80.3343 69.1326 80.5343 69.3993 80.7957C69.6713 81.0517 69.8793 81.353 70.0233 81.6997C70.1726 82.0463 70.2473 82.4277 70.2473 82.8437C70.2473 83.2597 70.1726 83.641 70.0233 83.9877C69.8793 84.3343 69.6713 84.6383 69.3993 84.8997C69.1326 85.1557 68.8179 85.3557 68.4553 85.4997C68.0979 85.6383 67.7059 85.7077 67.2793 85.7077ZM67.2793 84.9957C67.5886 84.9957 67.8739 84.9423 68.1353 84.8357C68.4019 84.729 68.6313 84.5797 68.8233 84.3877C69.0206 84.1903 69.1726 83.961 69.2793 83.6997C69.3913 83.4383 69.4473 83.153 69.4473 82.8437C69.4473 82.5343 69.3913 82.249 69.2793 81.9877C69.1726 81.7263 69.0206 81.4997 68.8233 81.3077C68.6313 81.1103 68.4019 80.9583 68.1353 80.8517C67.8739 80.745 67.5886 80.6917 67.2793 80.6917C66.9646 80.6917 66.6739 80.745 66.4073 80.8517C66.1459 80.9583 65.9166 81.1103 65.7193 81.3077C65.5219 81.4997 65.3673 81.7263 65.2553 81.9877C65.1486 82.249 65.0953 82.5343 65.0953 82.8437C65.0953 83.153 65.1486 83.4383 65.2553 83.6997C65.3673 83.961 65.5219 84.1903 65.7193 84.3877C65.9166 84.5797 66.1459 84.729 66.4073 84.8357C66.6739 84.9423 66.9646 84.9957 67.2793 84.9957ZM84.062 85.7077C83.6353 85.7077 83.2273 85.6437 82.838 85.5157C82.4487 85.3823 82.142 85.2117 81.918 85.0037L82.214 84.3797C82.4273 84.5663 82.6993 84.721 83.03 84.8437C83.3607 84.9663 83.7047 85.0277 84.062 85.0277C84.3873 85.0277 84.6513 84.9903 84.854 84.9157C85.0567 84.841 85.206 84.7397 85.302 84.6117C85.398 84.4783 85.446 84.329 85.446 84.1637C85.446 83.9717 85.382 83.817 85.254 83.6997C85.1313 83.5823 84.9687 83.489 84.766 83.4197C84.5687 83.345 84.35 83.281 84.11 83.2277C83.87 83.1743 83.6273 83.113 83.382 83.0437C83.142 82.969 82.9207 82.8757 82.718 82.7637C82.5207 82.6517 82.3607 82.5023 82.238 82.3157C82.1153 82.1237 82.054 81.8783 82.054 81.5797C82.054 81.2917 82.1287 81.0277 82.278 80.7877C82.4327 80.5423 82.6673 80.3477 82.982 80.2037C83.302 80.0543 83.7073 79.9797 84.198 79.9797C84.5233 79.9797 84.846 80.0223 85.166 80.1077C85.486 80.193 85.7633 80.3157 85.998 80.4757L85.734 81.1157C85.494 80.9557 85.2407 80.841 84.974 80.7717C84.7073 80.697 84.4487 80.6597 84.198 80.6597C83.8833 80.6597 83.6247 80.6997 83.422 80.7797C83.2193 80.8597 83.07 80.9663 82.974 81.0997C82.8833 81.233 82.838 81.3823 82.838 81.5477C82.838 81.745 82.8993 81.9023 83.022 82.0197C83.15 82.137 83.3127 82.2303 83.51 82.2997C83.7127 82.369 83.934 82.433 84.174 82.4917C84.414 82.545 84.654 82.6063 84.894 82.6757C85.1393 82.745 85.3607 82.8357 85.558 82.9477C85.7607 83.0597 85.9233 83.209 86.046 83.3957C86.1687 83.5823 86.23 83.8223 86.23 84.1157C86.23 84.3983 86.1527 84.6623 85.998 84.9077C85.8433 85.1477 85.6033 85.3423 85.278 85.4917C84.958 85.6357 84.5527 85.7077 84.062 85.7077ZM98.3588 85.6437V80.0437H100.543C101.033 80.0437 101.452 80.121 101.799 80.2757C102.145 80.4303 102.412 80.6543 102.599 80.9477C102.785 81.241 102.879 81.5903 102.879 81.9957C102.879 82.401 102.785 82.7503 102.599 83.0437C102.412 83.3317 102.145 83.5557 101.799 83.7157C101.452 83.8703 101.033 83.9477 100.543 83.9477H98.7988L99.1588 83.5717V85.6437H98.3588ZM99.1588 83.6517L98.7988 83.2517H100.519C101.031 83.2517 101.417 83.1423 101.679 82.9237C101.945 82.705 102.079 82.3957 102.079 81.9957C102.079 81.5957 101.945 81.2863 101.679 81.0677C101.417 80.849 101.031 80.7397 100.519 80.7397H98.7988L99.1588 80.3397V83.6517ZM113.885 85.6437L116.421 80.0437H117.213L119.757 85.6437H118.917L116.653 80.4917H116.973L114.709 85.6437H113.885ZM114.965 84.2437L115.181 83.6037H118.333L118.565 84.2437H114.965ZM133.978 85.7077C133.551 85.7077 133.157 85.6383 132.794 85.4997C132.437 85.3557 132.125 85.1557 131.858 84.8997C131.597 84.6383 131.391 84.3343 131.242 83.9877C131.093 83.641 131.018 83.2597 131.018 82.8437C131.018 82.4277 131.093 82.0463 131.242 81.6997C131.391 81.353 131.599 81.0517 131.866 80.7957C132.133 80.5343 132.445 80.3343 132.802 80.1957C133.165 80.0517 133.559 79.9797 133.986 79.9797C134.418 79.9797 134.815 80.0543 135.178 80.2037C135.546 80.3477 135.858 80.5637 136.114 80.8517L135.594 81.3557C135.381 81.1317 135.141 80.9663 134.874 80.8597C134.607 80.7477 134.322 80.6917 134.018 80.6917C133.703 80.6917 133.41 80.745 133.138 80.8517C132.871 80.9583 132.639 81.1077 132.442 81.2997C132.245 81.4917 132.09 81.721 131.978 81.9877C131.871 82.249 131.818 82.5343 131.818 82.8437C131.818 83.153 131.871 83.441 131.978 83.7077C132.09 83.969 132.245 84.1957 132.442 84.3877C132.639 84.5797 132.871 84.729 133.138 84.8357C133.41 84.9423 133.703 84.9957 134.018 84.9957C134.322 84.9957 134.607 84.9423 134.874 84.8357C135.141 84.7237 135.381 84.553 135.594 84.3237L136.114 84.8277C135.858 85.1157 135.546 85.3343 135.178 85.4837C134.815 85.633 134.415 85.7077 133.978 85.7077ZM148.943 82.4597H151.823V83.1397H148.943V82.4597ZM149.015 84.9477H152.279V85.6437H148.215V80.0437H152.167V80.7397H149.015V84.9477Z" fill="#00A1FF"/>
<path d="M15.8531 49.7417C16.9556 49.7417 17.9251 49.9223 18.7614 50.2835C19.6168 50.6446 20.3296 51.1484 20.8999 51.7947C21.4892 52.4219 21.9263 53.1823 22.2115 54.0757C22.5156 54.9501 22.6677 55.91 22.6677 56.9555C22.6677 57.9819 22.5156 58.9419 22.2115 59.8353C21.9263 60.7287 21.4892 61.508 20.8999 62.1733C20.3296 62.8196 19.6168 63.3328 18.7614 63.713C17.9251 64.0932 16.9556 64.2833 15.8531 64.2833H8.26871V69.6437H1.82482V49.7417H15.8531ZM14.7696 58.9229C15.3019 58.9229 15.6725 58.7138 15.8816 58.2956C16.1097 57.8584 16.2333 57.4117 16.2523 56.9555C16.2523 56.4993 16.1382 56.0811 15.9101 55.7009C15.7011 55.3017 15.3209 55.1021 14.7696 55.1021H8.26871V58.9229H14.7696ZM47.1379 69.6437H39.582L31.9976 58.7233H37.5576C38.337 58.7233 38.9262 58.5522 39.3254 58.21C39.7246 57.8489 39.9242 57.4592 39.9242 57.041C39.9242 56.6418 39.7246 56.2807 39.3254 55.9575C38.9452 55.6154 38.356 55.4443 37.5576 55.4443H31.7695V69.6437H25.3256V49.6847H37.9283C39.2589 49.6847 40.4564 49.8273 41.5209 50.1124C42.5854 50.3785 43.4978 50.7967 44.2581 51.367C45.0185 51.9182 45.5982 52.612 45.9974 53.4484C46.3966 54.2658 46.5962 55.2352 46.5962 56.3567C46.5962 57.2501 46.4631 58.0485 46.197 58.7518C45.9499 59.4361 45.5982 60.0349 45.142 60.5481C44.6858 61.0613 44.1536 61.4795 43.5453 61.8027C42.937 62.1258 42.2812 62.3634 41.5779 62.5155L47.1379 69.6437ZM74.8372 69.6437H66.7966L61.3792 61.0043L55.9902 69.6437H47.9496L61.3792 48.2306L74.8372 69.6437ZM87.1623 49.6277C88.626 49.6277 89.9756 49.8463 91.2111 50.2835C92.4657 50.7207 93.5492 51.367 94.4616 52.2224C95.374 53.0587 96.0773 54.0947 96.5715 55.3302C97.0848 56.5658 97.3414 57.9724 97.3414 59.5501C97.3414 61.1279 97.0848 62.544 96.5715 63.7986C96.0583 65.0341 95.3455 66.0891 94.4331 66.9635C93.5207 67.8379 92.4467 68.5032 91.2111 68.9594C89.9756 69.4156 88.626 69.6437 87.1623 69.6437H76.6981V57.041H83.142V63.8841H87.1623C87.8086 63.8841 88.3598 63.77 88.8161 63.5419C89.2723 63.3138 89.6524 63.0002 89.9566 62.601C90.2607 62.2018 90.4793 61.7361 90.6124 61.2039C90.7644 60.6716 90.8405 60.1109 90.8405 59.5216C90.8405 58.9134 90.7644 58.3621 90.6124 57.8679C90.4793 57.3547 90.2607 56.9175 89.9566 56.5563C89.6714 56.1761 89.2913 55.8815 88.8161 55.6724C88.3598 55.4633 87.8086 55.3588 87.1623 55.3588H76.6981V49.6277H87.1623ZM119.532 63.9126V69.6437H100.2V49.7417H119.133V55.4728H106.644V63.9126H119.532ZM108.583 62.2018V57.1836H117.964V62.2018H108.583ZM142.058 63.9126V69.6437H122.726V49.7417H141.659V55.4728H129.17V63.9126H142.058ZM131.109 62.2018V57.1836H140.49V62.2018H131.109ZM159.281 49.6847C160.383 49.6847 161.353 49.8653 162.189 50.2265C163.045 50.5876 163.757 51.0913 164.328 51.7376C164.917 52.3839 165.354 53.1538 165.639 54.0472C165.943 54.9216 166.096 55.8815 166.096 56.927C166.096 57.9724 165.943 58.9419 165.639 59.8353C165.335 60.7287 164.898 61.508 164.328 62.1733C163.757 62.8196 163.045 63.3328 162.189 63.713C161.353 64.0932 160.383 64.2833 159.281 64.2833H153.635V58.8943H158.197C158.73 58.8943 159.1 58.6853 159.309 58.2671C159.538 57.8299 159.661 57.3832 159.68 56.927C159.68 56.4708 159.566 56.0526 159.338 55.6724C159.129 55.2732 158.749 55.0736 158.197 55.0736H151.697V69.6437H145.253V49.6847H159.281Z" fill="#004088"/>
<g clip-path="url(#clip0_39_224)">
<path d="M121.565 0.356234C121.565 0.356234 121.553 0.356234 121.541 0.356234C121.525 0.356234 121.509 0.36422 121.481 0.376199C117.516 1.77773 116.917 2.32876 116.554 2.27286C114.442 1.94943 111.651 2.29283 110.836 2.40463C109.918 2.29682 108.64 2.20099 107.901 2.2529C104.639 2.46852 102.151 3.902 100.61 5.09989L79.9943 15.8689L98.8171 6.77694L93.2789 11.5406L105.525 7.78317C102.938 8.58176 90.5078 12.5148 85.3568 15.3419C85.3568 15.3419 73.3699 16.975 66.51 17.7217L67.616 17.4222L65.5756 15.817L64.3178 17.9054C62.6847 18.0651 61.3551 18.1729 60.5724 18.2008C56.248 18.3446 54.3514 20.5806 54.3514 20.5806L57.8971 21.2195L45.9741 28.5666L62.8005 19.6263L59.5822 21.527L62.5569 22.078L54.2995 27.0413L66.1586 20.6046L63.5432 22.2417L64.1422 22.3495L71.2536 23.7071C71.2536 23.7071 75.9454 21.1157 78.3651 19.9617C79.7147 19.3189 82.4899 18.1968 82.4899 18.1968L66.1626 26.4942L71.07 23.8229L64.1342 22.4933L64.5854 26.6619L55.6092 28.4508C55.6092 28.4508 54.2476 28.6944 53.6167 29.9082C53.2773 30.5631 56.9588 30.5671 60.4207 30.4353C60.4207 30.4353 57.2223 32.3719 56.9548 32.5276L63.2717 29.2773C62.6727 29.6726 61.4908 30.3914 61.6146 30.3834C64.0783 30.2636 66.1586 30.1039 66.1586 30.1039L68.9577 28.5786C67.8237 29.6726 67.4923 30.056 67.3725 30.1997C67.628 32.5676 69.4728 33.0787 69.4728 33.0787C69.4728 33.0787 70.7306 32.871 71.3375 32.6794C73.2821 32.0764 76.9836 30.3554 76.9836 30.3554C76.8558 30.5231 76.3367 30.7947 75.2905 31.4495C75.0949 31.5733 75.023 32.1124 75.023 32.1124C75.6858 34.1807 76.9476 34.4562 76.9476 34.4562C76.9476 34.4562 77.2311 34.58 78.7604 33.9731C78.7604 33.9731 79.8186 35.0113 80.3656 35.5024L76.133 37.9541L82.8412 34.5041L80.701 35.8538L83.0249 38.014C83.0249 38.014 84.2867 37.5747 85.261 37.2353C86.2313 36.8959 86.0875 35.9736 86.0875 35.9736L85.1093 30.5631C83.3084 31.6332 81.4317 32.5117 79.6748 33.6496L79.543 33.5259C86.0476 29.485 92.648 25.5878 99.2124 21.6348H99.2683L88.8307 28.2911L92.8157 29.9282L96.03 28.1793L93.0393 29.9961L85.9478 34.1048L93.5185 30.2117C94.373 30.619 96.7448 31.5733 98.302 32.2521L101.872 30.3075L87.3693 39.3636L99.5598 32.7792L100.714 33.3023C100.714 33.3023 101.445 33.0587 103.094 32.0365C104.747 31.0143 103.968 29.8483 103.968 29.8483L99.9871 21.3154L102.027 17.4502L88.3715 25.3882L101.329 17.4022L102.307 16.9151L102.387 16.7634C103.8 15.4257 108.336 10.1191 108.336 10.1191L98.8092 15.0783C98.8092 15.0783 100.414 13.5211 108.576 9.48817C114.549 6.53736 116.25 4.10963 116.909 3.07944C116.909 3.07944 121.657 0.432101 121.553 0.352242L121.565 0.356234ZM108.664 2.66018C109.039 2.65219 109.426 2.66417 109.822 2.69212L99.5998 6.48146C100.85 5.29155 104.056 2.74403 108.664 2.66018ZM97.4196 12.6226L88.667 17.7896L87.6129 19.6623C85.9598 20.3371 74.7155 26.067 70.2195 27.9956L86.7024 19.2709L87.7007 17.546L97.4196 12.6226Z" fill="#004088"/>
<path d="M66.8254 30.9106L63.3675 33.9732L53.5847 40.1384L64.1102 34.688L68.3547 33.2385C68.3547 33.2385 67.2846 32.412 66.8254 30.9146V30.9106Z" fill="#00A1FF"/>
<path d="M74.6435 32.4199L71.1856 35.4825L61.4028 41.6477L71.9283 36.1973L76.1728 34.7478C76.1728 34.7478 75.1027 33.9213 74.6435 32.4239V32.4199Z" fill="#00A1FF"/>
</g>
<defs>
<clipPath id="clip0_39_224">
<rect width="75.591" height="41.2873" fill="white" transform="translate(45.9741 0.356323)"/>
</clipPath>
</defs>
</svg>
