<svg width="177" height="93" viewBox="0 0 177 93" fill="none" xmlns="http://www.w3.org/2000/svg">
<path d="M20.1154 90.0811L19.4641 88.6007H16.3174L15.666 90.0811H14.7948L17.4762 84.1598H18.3137L21.0036 90.0811H20.1154ZM16.6134 87.924H19.168L17.8907 85.0226L16.6134 87.924ZM34.3215 89.3451H37.7727V90.0811H33.4756V84.1598H37.6543V84.8957H34.3215V86.7144H37.2906V87.4334H34.3215V89.3451ZM55.6119 90.0811H54.6899L53.4126 88.2624C53.2942 88.2708 53.1673 88.2793 53.0404 88.2793H51.577V90.0811H50.7311V84.1598H53.0404C54.5799 84.1598 55.5104 84.938 55.5104 86.2238C55.5104 87.1374 55.0367 87.7971 54.2077 88.0932L55.6119 90.0811ZM53.015 87.5603C54.0978 87.5603 54.6645 87.0697 54.6645 86.2238C54.6645 85.3779 54.0978 84.8957 53.015 84.8957H51.577V87.5603H53.015ZM71.1388 90.1487C69.3201 90.1487 67.9836 88.8545 67.9836 87.1204C67.9836 85.3864 69.3201 84.0921 71.1388 84.0921C72.9405 84.0921 74.277 85.3779 74.277 87.1204C74.277 88.863 72.9405 90.1487 71.1388 90.1487ZM71.1388 89.3959C72.4499 89.3959 73.4311 88.4316 73.4311 87.1204C73.4311 85.8093 72.4499 84.845 71.1388 84.845C69.8107 84.845 68.8295 85.8093 68.8295 87.1204C68.8295 88.4316 69.8107 89.3959 71.1388 89.3959ZM88.8843 90.1487C87.9791 90.1487 87.091 89.8442 86.6173 89.4043L86.9302 88.7445C87.3701 89.1421 88.1229 89.4297 88.8843 89.4297C89.9078 89.4297 90.3476 89.0321 90.3476 88.5162C90.3476 87.0697 86.7611 87.9832 86.7611 85.7839C86.7611 84.8704 87.4716 84.0921 89.0281 84.0921C89.7217 84.0921 90.4407 84.2782 90.9313 84.6166L90.6522 85.2933C90.1362 84.9634 89.5525 84.8112 89.0281 84.8112C88.0214 84.8112 87.59 85.2341 87.59 85.7501C87.59 87.1966 91.1766 86.2915 91.1766 88.4654C91.1766 89.3705 90.4491 90.1487 88.8843 90.1487ZM106.31 84.1598C107.85 84.1598 108.78 84.938 108.78 86.2238C108.78 87.5095 107.85 88.2878 106.31 88.2878H104.847V90.0811H104.001V84.1598H106.31ZM106.285 87.5518C107.368 87.5518 107.935 87.0697 107.935 86.2238C107.935 85.3779 107.368 84.8957 106.285 84.8957H104.847V87.5518H106.285ZM125.738 90.0811L125.087 88.6007H121.94L121.289 90.0811H120.418L123.099 84.1598H123.937L126.627 90.0811H125.738ZM122.236 87.924H124.791L123.514 85.0226L122.236 87.924ZM141.664 90.1487C139.87 90.1487 138.534 88.8714 138.534 87.1204C138.534 85.3694 139.87 84.0921 141.672 84.0921C142.586 84.0921 143.381 84.4051 143.922 85.0142L143.372 85.5471C142.916 85.0649 142.357 84.845 141.706 84.845C140.369 84.845 139.38 85.8093 139.38 87.1204C139.38 88.4316 140.369 89.3959 141.706 89.3959C142.357 89.3959 142.916 89.1675 143.372 88.6853L143.922 89.2182C143.381 89.8273 142.586 90.1487 141.664 90.1487ZM157.564 89.3451H161.015V90.0811H156.718V84.1598H160.896V84.8957H157.564V86.7144H160.533V87.4334H157.564V89.3451Z" fill="white"/>
<path d="M16.7625 52.7435C17.9283 52.7435 18.9533 52.9345 19.8377 53.3163C20.7421 53.6982 21.4958 54.2308 22.0988 54.9142C22.7219 55.5775 23.1841 56.3814 23.4856 57.3261C23.8072 58.2506 23.968 59.2656 23.968 60.3711C23.968 61.4564 23.8072 62.4714 23.4856 63.4161C23.1841 64.3607 22.7219 65.1848 22.0988 65.8882C21.4958 66.5716 20.7421 67.1143 19.8377 67.5162C18.9533 67.9182 17.9283 68.1192 16.7625 68.1192H8.74304V73.7871H1.9295V52.7435H16.7625ZM15.6169 62.4513C16.1796 62.4513 16.5716 62.2302 16.7927 61.788C17.0339 61.3258 17.1645 60.8534 17.1846 60.3711C17.1846 59.8887 17.064 59.4465 16.8228 59.0445C16.6017 58.6225 16.1997 58.4114 15.6169 58.4114H8.74304V62.4513H15.6169ZM49.8419 73.7871H41.8526L33.8331 62.2403H39.7121C40.5361 62.2403 41.1592 62.0594 41.5813 61.6976C42.0033 61.3157 42.2144 60.9037 42.2144 60.4615C42.2144 60.0394 42.0033 59.6576 41.5813 59.3159C41.1793 58.9541 40.5562 58.7732 39.7121 58.7732H33.5919V73.7871H26.7784V52.6832H40.104C41.5109 52.6832 42.7771 52.834 43.9027 53.1354C45.0282 53.4168 45.993 53.859 46.7969 54.462C47.6009 55.0448 48.2139 55.7785 48.636 56.6628C49.0581 57.5271 49.2691 58.5521 49.2691 59.7379C49.2691 60.6826 49.1284 61.5268 48.847 62.2704C48.5857 62.994 48.2139 63.6271 47.7315 64.1698C47.2492 64.7124 46.6864 65.1546 46.0432 65.4963C45.4001 65.838 44.7066 66.0892 43.963 66.25L49.8419 73.7871ZM79.1302 73.7871H70.6283L64.9001 64.6521L59.2021 73.7871H50.7002L64.9001 51.1457L79.1302 73.7871ZM92.1623 52.6229C93.7099 52.6229 95.1369 52.8541 96.4434 53.3163C97.7699 53.7786 98.9155 54.462 99.8803 55.3664C100.845 56.2508 101.589 57.3462 102.111 58.6526C102.654 59.959 102.925 61.4464 102.925 63.1146C102.925 64.7828 102.654 66.2802 102.111 67.6067C101.569 68.9131 100.815 70.0286 99.8501 70.9532C98.8854 71.8777 97.7498 72.5812 96.4434 73.0635C95.1369 73.5459 93.7099 73.7871 92.1623 73.7871H81.0978V60.4615H87.9114V67.6971H92.1623C92.8456 67.6971 93.4285 67.5765 93.9109 67.3353C94.3933 67.0942 94.7952 66.7625 95.1168 66.3405C95.4384 65.9184 95.6695 65.4259 95.8102 64.8632C95.971 64.3004 96.0514 63.7075 96.0514 63.0844C96.0514 62.4413 95.971 61.8584 95.8102 61.3358C95.6695 60.7931 95.4384 60.3309 95.1168 59.949C94.8153 59.547 94.4134 59.2355 93.9109 59.0144C93.4285 58.7933 92.8456 58.6828 92.1623 58.6828H81.0978V52.6229H92.1623ZM126.389 67.7273V73.7871H105.948V52.7435H125.967V58.8033H112.762V67.7273H126.389ZM114.812 65.9184V60.6123H124.731V65.9184H114.812ZM150.207 67.7273V73.7871H129.767V52.7435H149.785V58.8033H136.58V67.7273H150.207ZM138.63 65.9184V60.6123H148.549V65.9184H138.63ZM168.418 52.6832C169.584 52.6832 170.609 52.8742 171.493 53.256C172.398 53.6379 173.151 54.1705 173.754 54.8539C174.377 55.5373 174.84 56.3513 175.141 57.2959C175.463 58.2205 175.623 59.2355 175.623 60.3409C175.623 61.4464 175.463 62.4714 175.141 63.4161C174.819 64.3607 174.357 65.1848 173.754 65.8882C173.151 66.5716 172.398 67.1143 171.493 67.5162C170.609 67.9182 169.584 68.1192 168.418 68.1192H162.449V62.4212H167.272C167.835 62.4212 168.227 62.2001 168.448 61.7579C168.689 61.2956 168.82 60.8233 168.84 60.3409C168.84 59.8585 168.719 59.4164 168.478 59.0144C168.257 58.5923 167.855 58.3813 167.272 58.3813H160.398V73.7871H153.585V52.6832H168.418Z" fill="white"/>
<g clip-path="url(#clip0_77_12)">
<path d="M128.539 0.360667C128.539 0.360667 128.526 0.360667 128.513 0.360667C128.497 0.360667 128.48 0.369111 128.45 0.381777C124.258 1.86371 123.624 2.44635 123.24 2.38724C121.007 2.04526 118.055 2.40835 117.194 2.52657C116.223 2.41257 114.872 2.31124 114.091 2.36613C110.642 2.59412 108.011 4.10983 106.382 5.37643L84.5832 16.7632L104.486 7.14968L98.6299 12.1866L111.579 8.21363C108.843 9.05804 95.6998 13.2167 90.2534 16.2059C90.2534 16.2059 77.5789 17.9327 70.3255 18.7223L71.495 18.4056L69.3375 16.7083L68.0076 18.9165C66.2808 19.0854 64.8748 19.1993 64.0473 19.2289C59.4748 19.3809 57.4694 21.7452 57.4694 21.7452L61.2185 22.4207L48.6116 30.1893L66.4032 20.7362L63.0002 22.7458L66.1456 23.3285L57.4145 28.5765L69.9539 21.7706L67.1885 23.5016L67.8218 23.6156L75.3412 25.0511C75.3412 25.0511 80.3021 22.311 82.8606 21.0908C84.2877 20.4111 87.222 19.2247 87.222 19.2247L69.9581 27.998L75.147 25.1735L67.8133 23.7676L68.2904 28.1754L58.7993 30.0668C58.7993 30.0668 57.3596 30.3244 56.6925 31.6079C56.3337 32.3003 60.2264 32.3045 63.8869 32.1652C63.8869 32.1652 60.505 34.2129 60.2221 34.3775L66.9014 30.9408C66.2681 31.3588 65.0184 32.1187 65.1492 32.1103C67.7542 31.9836 69.9539 31.8148 69.9539 31.8148L72.9136 30.2019C71.7145 31.3588 71.3641 31.7641 71.2374 31.9161C71.5076 34.4197 73.4582 34.9602 73.4582 34.9602C73.4582 34.9602 74.7881 34.7406 75.4299 34.538C77.486 33.9004 81.3998 32.0807 81.3998 32.0807C81.2647 32.2581 80.7159 32.5452 79.6097 33.2376C79.4028 33.3685 79.3268 33.9384 79.3268 33.9384C80.0277 36.1254 81.3618 36.4168 81.3618 36.4168C81.3618 36.4168 81.6616 36.5476 83.2786 35.9059C83.2786 35.9059 84.3975 37.0036 84.9759 37.5229L80.5005 40.1153L87.5935 36.4674L85.3305 37.8945L87.7878 40.1786C87.7878 40.1786 89.1219 39.7142 90.1521 39.3553C91.178 38.9964 91.026 38.0211 91.026 38.0211L89.9917 32.3003C88.0875 33.4318 86.1032 34.3606 84.2455 35.5639L84.1061 35.433C90.9838 31.1603 97.9628 27.0396 104.904 22.8598H104.963L93.9266 29.898L98.1402 31.629L101.539 29.7797L98.3766 31.7008L90.8783 36.0452L98.8832 31.9288C99.7868 32.3594 102.295 33.3685 103.941 34.0862L107.716 32.0301L92.3813 41.6056L105.271 34.6435L106.491 35.1966C106.491 35.1966 107.264 34.9391 109.008 33.8582C110.756 32.7774 109.932 31.5445 109.932 31.5445L105.723 22.5221L107.88 18.4352L93.441 26.8285L107.142 18.3845L108.176 17.8694L108.26 17.709C109.755 16.2946 114.551 10.6835 114.551 10.6835L104.477 15.9273C104.477 15.9273 106.175 14.2807 114.804 10.0164C121.121 6.89636 122.919 4.32937 123.616 3.24009C123.616 3.24009 128.636 0.440886 128.526 0.356445L128.539 0.360667ZM114.897 2.79678C115.294 2.78833 115.704 2.801 116.122 2.83055L105.313 6.83725C106.635 5.57909 110.025 2.88544 114.897 2.79678ZM103.008 13.3307L93.7535 18.794L92.6389 20.7742C90.8909 21.4877 79.0017 27.5463 74.2477 29.5855L91.6762 20.3604L92.7317 18.5365L103.008 13.3307Z" fill="white"/>
<path d="M70.6589 32.667L67.0027 35.9053L56.6587 42.4241L67.788 36.661L72.276 35.1284C72.276 35.1284 71.1445 34.2545 70.6589 32.6712V32.667Z" fill="white"/>
<path d="M78.926 34.2637L75.2697 37.502L64.9258 44.0208L76.055 38.2577L80.5431 36.7251C80.5431 36.7251 79.4116 35.8512 78.926 34.2679V34.2637Z" fill="white"/>
</g>
<defs>
<clipPath id="clip0_77_12">
<rect width="79.9272" height="43.6557" fill="white" transform="translate(48.6116 0.360352)"/>
</clipPath>
</defs>
</svg>
