<svg width="24" height="25" viewBox="0 0 24 25" fill="none" xmlns="http://www.w3.org/2000/svg">
<g clip-path="url(#clip0_66_341)">
<path d="M21 0.720703H3C1.3455 0.720703 0 2.0662 0 3.7207V21.7207C0 23.3752 1.3455 24.7207 3 24.7207H21C22.6545 24.7207 24 23.3752 24 21.7207V3.7207C24 2.0662 22.6545 0.720703 21 0.720703Z" fill="white"/>
<path d="M20.25 12.7207H16.5V9.7207C16.5 8.8927 17.172 8.9707 18 8.9707H19.5V5.2207H16.5C14.0145 5.2207 12 7.2352 12 9.7207V12.7207H9V16.4707H12V24.7207H16.5V16.4707H18.75L20.25 12.7207Z" fill="black"/>
</g>
<defs>
<clipPath id="clip0_66_341">
<rect y="0.720703" width="24" height="24" rx="6" fill="white"/>
</clipPath>
</defs>
</svg>
