<svg width="24" height="25" viewBox="0 0 24 25" fill="none" xmlns="http://www.w3.org/2000/svg">
<g clip-path="url(#clip0_66_345)">
<path d="M1.49996 2.35399C-0.386045 4.31299 -4.48823e-05 6.39399 -4.48823e-05 12.716C-4.48823e-05 17.966 -0.916045 23.229 3.87796 24.468C5.37496 24.853 18.639 24.853 20.134 24.466C22.13 23.951 23.754 22.332 23.976 19.509C24.007 19.115 24.007 6.32399 23.975 5.92199C23.739 2.91499 21.888 1.18199 19.449 0.830994C18.89 0.749994 18.778 0.725994 15.91 0.720994C5.73695 0.725994 3.50696 0.272994 1.49996 2.35399Z" fill="white"/>
<path d="M11.998 4.72256C8.72034 4.72256 5.60783 4.43099 4.41897 7.48212C3.9279 8.74228 3.99922 10.3789 3.99922 12.7223C3.99922 14.7786 3.93332 16.7113 4.41897 17.9616C5.60512 21.0145 8.7429 20.722 11.9962 20.722C15.1349 20.722 18.3711 21.0488 19.5744 17.9616C20.0664 16.6887 19.9941 15.0765 19.9941 12.7223C19.9941 9.59714 20.1666 7.57961 18.6509 6.06488C17.1163 4.53029 15.041 4.72256 11.9944 4.72256H11.998ZM11.2813 6.16417C18.1183 6.15334 18.9885 5.39327 18.5083 15.9521C18.3377 19.6866 15.4942 19.2768 11.9989 19.2768C5.62588 19.2768 5.44263 19.0944 5.44263 12.7187C5.44263 6.26889 5.94815 6.16779 11.2813 6.16237V6.16417ZM16.2678 7.49205C15.7379 7.49205 15.3082 7.92173 15.3082 8.45162C15.3082 8.9815 15.7379 9.41118 16.2678 9.41118C16.7977 9.41118 17.2274 8.9815 17.2274 8.45162C17.2274 7.92173 16.7977 7.49205 16.2678 7.49205ZM11.998 8.6141C9.72955 8.6141 7.89075 10.4538 7.89075 12.7223C7.89075 14.9908 9.72955 16.8296 11.998 16.8296C14.2665 16.8296 16.1044 14.9908 16.1044 12.7223C16.1044 10.4538 14.2665 8.6141 11.998 8.6141ZM11.998 10.0557C15.5231 10.0557 15.5276 15.3889 11.998 15.3889C8.4739 15.3889 8.46848 10.0557 11.998 10.0557Z" fill="black"/>
</g>
<defs>
<clipPath id="clip0_66_345">
<rect y="0.720703" width="24" height="24" rx="6" fill="white"/>
</clipPath>
</defs>
</svg>
