<svg width="24" height="25" viewBox="0 0 24 25" fill="none" xmlns="http://www.w3.org/2000/svg">
<g clip-path="url(#clip0_66_353)">
<path d="M20.7273 0.720703H3.27273C1.46525 0.720703 0 2.18595 0 3.99343V21.448C0 23.2555 1.46525 24.7207 3.27273 24.7207H20.7273C22.5347 24.7207 24 23.2555 24 21.448V3.99343C24 2.18595 22.5347 0.720703 20.7273 0.720703Z" fill="white"/>
<path d="M8.64535 7.26616C8.64535 7.67071 8.52539 8.06618 8.30063 8.40255C8.07587 8.73892 7.75642 9.0011 7.38266 9.15591C7.0089 9.31073 6.59763 9.35123 6.20085 9.27231C5.80407 9.19338 5.43961 8.99857 5.15354 8.71251C4.86748 8.42645 4.67267 8.06199 4.59375 7.66521C4.51482 7.26843 4.55533 6.85715 4.71015 6.4834C4.86496 6.10964 5.12713 5.79018 5.46351 5.56542C5.79988 5.34067 6.19535 5.2207 6.5999 5.2207C7.14239 5.2207 7.66266 5.43621 8.04625 5.8198C8.42985 6.2034 8.64535 6.72367 8.64535 7.26616Z" fill="black"/>
<path d="M8.18179 10.6752V19.7121C8.18215 19.7787 8.16933 19.8448 8.14406 19.9065C8.1188 19.9682 8.08159 20.0243 8.03458 20.0716C7.98757 20.1188 7.93167 20.1563 7.87011 20.1819C7.80856 20.2075 7.74255 20.2207 7.67588 20.2207H5.51997C5.4533 20.2209 5.38726 20.2079 5.32563 20.1824C5.26401 20.157 5.20801 20.1197 5.16087 20.0725C5.11373 20.0254 5.07637 19.9694 5.05094 19.9078C5.02552 19.8461 5.01252 19.7801 5.0127 19.7134V10.6752C5.0127 10.5407 5.06614 10.4117 5.16127 10.3165C5.25641 10.2214 5.38543 10.168 5.51997 10.168H7.67588C7.81018 10.1683 7.93886 10.2219 8.03369 10.317C8.12853 10.4121 8.18179 10.5409 8.18179 10.6752Z" fill="black"/>
<path d="M19.4507 15.3794V19.7539C19.4509 19.8152 19.439 19.876 19.4156 19.9326C19.3922 19.9893 19.3579 20.0408 19.3145 20.0841C19.2712 20.1275 19.2197 20.1618 19.1631 20.1852C19.1064 20.2085 19.0457 20.2205 18.9844 20.2203H16.6662C16.6049 20.2205 16.5442 20.2085 16.4875 20.1852C16.4308 20.1618 16.3794 20.1275 16.336 20.0841C16.2927 20.0408 16.2583 19.9893 16.235 19.9326C16.2116 19.876 16.1997 19.8152 16.1998 19.7539V15.5144C16.1998 14.8817 16.3853 12.7435 14.5457 12.7435C13.1207 12.7435 12.8303 14.2067 12.773 14.8639V19.7539C12.773 19.8765 12.7248 19.9941 12.6388 20.0813C12.5528 20.1686 12.436 20.2185 12.3135 20.2203H10.0744C10.0132 20.2203 9.95262 20.2082 9.89611 20.1848C9.83961 20.1613 9.78829 20.127 9.74509 20.0836C9.70189 20.0403 9.66767 19.9889 9.64438 19.9323C9.62109 19.8757 9.6092 19.8151 9.60938 19.7539V10.6353C9.6092 10.5741 9.62109 10.5135 9.64438 10.4569C9.66767 10.4004 9.70189 10.3489 9.74509 10.3056C9.78829 10.2623 9.83961 10.2279 9.89611 10.2045C9.95262 10.181 10.0132 10.1689 10.0744 10.1689H12.3135C12.4372 10.1689 12.5558 10.2181 12.6432 10.3055C12.7307 10.393 12.7798 10.5116 12.7798 10.6353V11.4235C13.3089 10.6299 14.093 10.0176 15.7662 10.0176C19.4726 10.0176 19.4507 13.4785 19.4507 15.3794Z" fill="black"/>
</g>
<defs>
<clipPath id="clip0_66_353">
<rect y="0.720703" width="24" height="24" rx="6" fill="white"/>
</clipPath>
</defs>
</svg>
