<svg width="24" height="25" viewBox="0 0 24 25" fill="none" xmlns="http://www.w3.org/2000/svg">
<g clip-path="url(#clip0_66_349)">
<rect y="0.720703" width="24" height="24" rx="6" fill="black"/>
<path d="M12.8025 12.311L18.2033 20.0362H15.9868L11.5796 13.7325V13.7321L10.9325 12.8067L5.78418 5.44238H8.00071L12.1554 11.3857L12.8025 12.311Z" fill="white"/>
<path d="M21.4067 0.720703H2.59325C1.16108 0.720703 0 1.88178 0 3.31396V22.1275C0 23.5596 1.16108 24.7207 2.59325 24.7207H21.4067C22.8389 24.7207 24 23.5596 24 22.1275V3.31396C24 1.88178 22.8389 0.720703 21.4067 0.720703ZM15.308 21.0732L10.8481 14.5824L5.26435 21.0732H3.82122L10.2073 13.6502L3.82122 4.35591H8.69203L12.9152 10.5022L18.2026 4.35591H19.6458L13.5562 11.4346H13.5558L20.1788 21.0732H15.308Z" fill="white"/>
</g>
<defs>
<clipPath id="clip0_66_349">
<rect y="0.720703" width="24" height="24" rx="6" fill="white"/>
</clipPath>
</defs>
</svg>
