<svg width="60" height="60" viewBox="0 0 60 60" fill="none" xmlns="http://www.w3.org/2000/svg">
<path d="M39.375 13.125C39.375 11.325 40.0312 9.225 41.1 7.2C37.275 5.00625 32.85 3.75 28.125 3.75C13.6313 3.75 1.875 15.5063 1.875 30C1.875 44.4938 13.6313 56.25 28.125 56.25C30.7313 56.25 31.8563 56.25 33.75 55.1625C39.4875 51.8438 28.125 43.125 33.75 35.625C35.8875 32.7563 38.5875 32.625 41.3438 33.3563C41.5125 29.3813 41.9269 25.65 42.5456 22.725L42.8644 21.2437C40.725 19.2 39.375 16.3125 39.375 13.125ZM9.375 26.25C9.375 23.1375 11.8875 20.625 15 20.625C18.1125 20.625 20.625 23.1375 20.625 26.25C20.625 29.3625 18.1125 31.875 15 31.875C11.8875 31.875 9.375 29.3625 9.375 26.25ZM18.75 46.875C15.6375 46.875 13.125 44.3625 13.125 41.25C13.125 38.1375 15.6375 35.625 18.75 35.625C21.8625 35.625 24.375 38.1375 24.375 41.25C24.375 44.3625 21.8625 46.875 18.75 46.875ZM26.325 20.625C23.2125 20.625 20.7 18.1125 20.7 15C20.7 11.8875 23.2125 9.375 26.325 9.375C29.4375 9.375 31.95 11.8875 31.95 15C31.95 18.1125 29.4375 20.625 26.325 20.625ZM56.25 37.5C56.25 42.3375 55.8375 58.125 50.625 58.125C45.4125 58.125 45 42.3375 45 37.5C45 32.2313 45.45 27.15 46.2188 23.4937C47.5687 24.0562 49.0687 24.375 50.625 24.375C52.1813 24.375 53.6813 24.0562 55.0312 23.4937C55.8 27.15 56.25 32.2313 56.25 37.5ZM50.625 20.625C46.4831 20.625 43.125 17.2669 43.125 13.125C43.125 8.98312 48.75 1.875 52.5 1.875C52.5 7.5 58.125 7.5 58.125 13.125C58.125 17.2669 54.7669 20.625 50.625 20.625Z" fill="white"/>
</svg>
