<svg width="60" height="60" viewBox="0 0 60 60" fill="none" xmlns="http://www.w3.org/2000/svg">
<path fill-rule="evenodd" clip-rule="evenodd" d="M9.71616 26.9945C10.2234 26.3159 8.80724 23.7496 8.10723 22.7651C7.78893 22.3164 6.99692 21.9128 7.11754 21.2448C7.69073 18.0651 10.4261 20.4864 11.8833 19.5796C13.6924 18.4532 13.8429 16.1361 14.8985 14.5822C15.3585 13.9048 16.8033 12.9516 17.0197 12.1764C17.2696 11.2801 15.6445 10.4648 15.3697 9.68469C14.809 8.08562 15.3436 6.06825 15.1223 5.37173C14.84 4.47849 13.7844 4.17997 13.8752 3.10932C14.0244 1.35818 17.2994 1.7819 18.3016 2.47968C19.208 3.1108 20.8082 4.41335 21.7569 4.79569C22.9679 5.28458 24.2896 3.26834 25.3763 4.05204C27.3744 5.49309 24.4214 6.97543 24.5295 8.37084C24.5693 8.88795 25.3327 10.0561 25.1375 10.49C24.7944 11.2567 23.6977 11.4196 23.4118 12.2607C22.9878 13.5149 26.3411 14.5994 26.9193 15.2585C27.6442 16.0871 26.1596 17.1786 26.0042 17.9996C25.9855 18.1023 27.3681 18.7662 27.4887 18.8604C28.19 19.4086 28.849 20.3901 29.6845 20.7297C30.8558 21.2053 32.0892 20.7 33.2853 20.8615C35.0086 21.0939 37.0601 23.3875 38.8506 22.2039C39.89 21.517 38.3943 19.359 39.3865 19.0161C41.7414 18.2018 41.2714 20.7365 42.1044 21.1897C42.1964 21.24 45.6828 20.8145 46.0359 20.6948C46.3952 20.5725 46.1205 19.6978 46.3542 19.3468C46.9697 18.4184 48.1384 16.9278 49.1456 16.3762C50.6015 15.5798 54.7979 16.8351 55.0466 18.7454C55.1224 19.3208 54.1053 19.4157 53.7261 19.6357C52.7289 20.2143 51.2481 21.5988 50.8241 22.6646C50.6264 23.1633 51.2145 23.8585 51.3016 24.3688C51.3861 24.8763 50.89 25.8985 50.6587 26.3549C50.2584 27.1421 48.8198 26.4224 48.4878 27.6506C48.1459 28.9104 50.0308 30.1209 49.1219 31.3184C48.7775 31.7713 47.7455 29.8772 47.605 29.5185C47.5491 29.375 47.5677 29.4115 47.5267 29.3046C47.5081 29.2556 47.4894 29.207 47.4695 29.1586C47.4521 29.1154 47.4285 29.0524 47.3974 29.0178C47.0194 28.601 45.3446 29.626 45.0039 28.712C44.4034 27.1003 44.9753 26.5966 45.5473 25.2237C45.6567 24.9601 44.984 25.1252 44.7005 25.0902C44.1423 25.021 43.5741 25.023 43.0357 24.848C41.8595 24.4655 41.3522 22.3318 40.212 23.6542C38.8331 25.2536 42.2573 29.4408 41.188 31.1884C40.4383 32.4157 38.7697 32.283 37.8123 33.1929C37.3026 33.6764 37.6581 34.3247 37.162 34.8599C36.6834 35.3758 36.002 35.6136 35.5158 36.1337C33.5451 38.2424 31.741 40.4884 29.7454 42.5498C28.6003 43.7326 26.8036 43.6569 25.8388 45.156C25.4645 45.7376 26.4754 47.6739 26.4281 48.5632C26.3796 49.4921 25.7157 50.4364 25.5988 51.395C25.5254 51.9979 25.9942 52.9869 25.7579 53.5045C25.2655 54.5807 23.5696 55.3488 22.7353 56.1352C22.0403 56.7901 21.5877 58.3088 20.3456 58.0984C18.0665 57.7118 18.3288 53.8213 17.6413 52.1775C17.2819 51.3202 16.5086 50.6485 16.0908 49.7923C15.4492 48.4737 15.5823 46.9523 15.0215 45.6218C14.3414 44.0091 13.2435 42.7041 12.8829 40.9596C12.2973 38.1185 13.1627 35.9116 12.7536 33.3067C12.735 33.1866 12.5112 32.4004 12.3222 32.3768C11.6458 32.2924 10.8301 33.5578 10.2532 33.8164C9.35678 34.2177 7.33882 32.8319 6.69723 32.362C5.55954 31.5281 5.51852 31.2383 6.34661 30.0972C6.59155 29.7604 5.10448 28.7597 4.93663 28.5747C4.91798 28.5539 4.99133 28.4039 4.99259 28.4029C5.24746 27.8844 6.59279 27.1793 7.12371 26.8774C7.76655 26.5119 8.94651 27.217 9.71616 26.9945Z" fill="white"/>
</svg>
