<svg width="60" height="60" viewBox="0 0 60 60" fill="none" xmlns="http://www.w3.org/2000/svg">
<g clip-path="url(#clip0_131_654)">
<path d="M51.7913 10.7462L49.1048 8.05969V0L40.7466 8.65676L40.1496 15.5224L31.4929 24.1792C30.8958 24.1792 30.5973 24.1792 30.0004 24.1792C26.7168 24.1792 24.0303 26.8657 24.0303 30.1493C24.0303 33.4329 26.7168 36.1194 30.0004 36.1194C33.284 36.1194 35.9705 33.4329 35.9705 30.1493C35.9705 29.5523 35.9705 29.2538 35.672 28.6568L44.3288 20L51.1945 19.403L59.8512 10.7462H51.7913Z" fill="white"/>
<path d="M46.1197 22.6865H45.8212L41.6421 27.1641C41.9405 28.0597 41.9405 29.2537 41.9405 30.1492C41.9405 36.7164 36.5674 42.0896 30.0002 42.0896C23.433 42.0896 18.0598 36.7164 18.0598 30.1492C18.0598 23.582 23.4331 18.2089 30.0003 18.2089C31.1943 18.2089 32.0899 18.5074 32.9854 18.5074L37.463 14.0297V13.7313C35.075 12.8357 32.687 12.2388 30.0003 12.2388C20.1495 12.2388 12.0898 20.2985 12.0898 30.1492C12.0898 40 20.1495 48.0596 30.0003 48.0596C39.8511 48.0596 47.9108 39.9999 47.9108 30.1491C47.9108 27.4626 47.3137 25.0745 46.1197 22.6865Z" fill="white"/>
<path d="M57.1643 17.9103L52.6867 22.0895C53.2838 24.4775 53.8807 27.1642 53.8807 30.1492C53.8807 43.2835 43.1345 54.0298 30.0001 54.0298C16.8657 54.0298 6.11953 43.2834 6.11953 30.1492C6.11953 17.0149 16.8657 6.26857 30.0001 6.26857C32.6866 6.26857 35.3733 6.86564 38.0598 7.76107V7.4626L42.5374 2.98498C38.6569 1.19389 34.4777 0.29834 30.0001 0.29834C13.5821 0.29834 0.149414 13.7312 0.149414 30.1492C0.149414 46.5671 13.5821 59.9999 30.0001 59.9999C46.4181 59.9999 59.8508 46.567 59.8508 30.1492C59.8508 25.6715 58.9554 21.4924 57.1643 17.9103Z" fill="white"/>
</g>
<defs>
<clipPath id="clip0_131_654">
<rect width="60" height="60" fill="white"/>
</clipPath>
</defs>
</svg>
