<svg width="60" height="60" viewBox="0 0 60 60" fill="none" xmlns="http://www.w3.org/2000/svg">
<path d="M49.3064 18.1049C50.9977 16.4137 52.0861 14.2715 52.4545 11.9071C52.6439 10.6884 52.253 9.49026 51.3802 8.61838C50.5083 7.74651 49.3083 7.35651 48.0933 7.54588C45.7299 7.91432 43.5867 9.00182 41.8955 10.6931L36.6652 15.9234L33.5339 15.2418C34.0683 14.4309 33.9792 13.3265 33.2667 12.6131C32.4511 11.7993 31.1264 11.7984 30.3108 12.6131L28.7292 14.1946L25.0186 13.3865L25.2774 13.1278C26.092 12.3131 26.0911 10.9865 25.2774 10.1728C24.4908 9.38338 23.1136 9.38245 22.3224 10.1728L20.1661 12.329L12.4861 10.6565C11.8824 10.5243 11.2589 10.7081 10.8192 11.1459L9.2733 12.6918C8.86736 13.0978 8.67986 13.6574 8.76049 14.2265C8.84111 14.7956 9.1758 15.2812 9.67924 15.5596L27.7158 25.5234L18.5855 35.5134L9.31267 36.0065L7.87643 37.4418C7.56893 37.7503 7.43955 38.1899 7.53049 38.6165C7.62236 39.0431 7.91955 39.3899 8.32642 39.5446L17.1042 42.8971L20.4577 51.6759C20.6133 52.0828 20.9602 52.3809 21.3867 52.4718C21.4767 52.4906 21.5677 52.4999 21.6567 52.4999C21.9924 52.4999 22.3167 52.3678 22.5614 52.124L23.9958 50.6896L24.4889 41.4159L34.4789 32.2856L44.4361 50.3156C44.7136 50.819 45.1992 51.1537 45.7683 51.2343C46.3374 51.3131 46.897 51.1274 47.303 50.7215L48.8499 49.1756C49.2877 48.7378 49.4705 48.1153 49.3392 47.5096L47.6695 39.8371L49.8286 37.679C50.2233 37.2843 50.4408 36.7593 50.4408 36.2006C50.4408 35.6418 50.2233 35.1168 49.8286 34.7221C49.013 33.9084 47.6883 33.9074 46.8727 34.7221L46.613 34.9818L45.8058 31.2712L47.3883 29.6887C47.783 29.294 48.0005 28.769 48.0005 28.2103C48.0005 27.6515 47.783 27.1265 47.3892 26.7328C46.7002 26.0437 45.563 25.9565 44.7605 26.4693L44.078 23.3334L49.3083 18.1031L49.3064 18.1049Z" fill="white"/>
</svg>
